<svg width="70" height="199" viewBox="0 0 70 199" fill="none" xmlns="http://www.w3.org/2000/svg">
<path d="M33.2843 186.268C36.3393 186.545 39.5053 186.768 42.6714 187.212C44.4488 187.49 46.3373 187.823 47.9481 188.601C50.1699 189.656 51.3919 191.767 50.5587 194.044C50.0032 195.544 48.448 197.043 47.0038 197.71C45.393 198.432 43.3935 198.488 41.5605 198.321C30.5071 197.432 19.4536 196.655 8.40025 195.377C2.23479 194.711 -0.931232 190.045 1.06838 184.324C2.90135 179.158 5.51195 174.215 8.28919 169.438C12.344 162.439 16.843 155.663 21.2311 148.831C21.5643 148.275 22.453 148.053 23.1751 147.609C28.2297 149.664 29.0074 153.941 28.0076 158.551C27.2855 161.717 25.6747 164.772 24.175 167.716C22.6753 170.604 20.7867 173.326 19.1759 175.936C20.7867 178.214 22.1198 176.881 23.2307 176.214C36.2837 168.271 45.0042 156.385 52.3361 143.387C53.7803 140.888 54.4469 137.833 54.8912 134.944C59.6681 102.506 55.1689 71.5123 40.0052 42.2958C33.4509 29.7427 22.953 21.0222 11.0109 13.968C8.90019 12.6905 6.12292 12.5795 3.67895 11.8018C1.29053 11.0798 0.124104 9.24676 0.0130145 6.85834C-0.15362 4.08111 1.29052 1.35943 3.73448 0.692892C5.84518 0.137445 8.1781 -0.251382 10.2333 0.192976C13.066 0.748423 16.0099 1.74823 18.5094 3.24793C33.1732 11.8018 45.4486 22.8552 52.8915 38.4633C63.0562 59.7369 69.3328 82.0658 69.1662 105.839C69.1106 116.948 69.1662 128.001 66.8333 138.999C65.3892 145.665 62.723 151.663 58.7237 157.051C51.8917 166.327 44.7265 175.214 35.395 182.157C34.5618 182.824 33.8397 183.713 33.1732 184.546C33.0065 184.768 33.1732 185.268 33.2843 186.268Z" fill="url(#paint0_linear_15_53)"/>
<defs>
<linearGradient id="paint0_linear_15_53" x1="34.5847" y1="-8.39221e-06" x2="34.5847" y2="198.399" gradientUnits="userSpaceOnUse">
<stop stop-color="#188BCD"/>
<stop offset="1" stop-color="#3B38BC"/>
</linearGradient>
</defs>
</svg>
