<svg width="70" height="198" viewBox="0 0 70 198" fill="none" xmlns="http://www.w3.org/2000/svg">
<path d="M35.8853 185.893C32.8303 186.17 29.6643 186.392 26.4982 186.835C24.7207 187.113 22.8322 187.445 21.2214 188.221C18.9996 189.275 17.7776 191.381 18.6108 193.654C19.1662 195.15 20.7215 196.647 22.1657 197.312C23.7765 198.033 25.7761 198.088 27.6091 197.922C38.6626 197.035 49.7161 196.259 60.7696 194.984C66.9351 194.319 70.1012 189.663 68.1015 183.953C66.2685 178.798 63.6579 173.864 60.8807 169.097C56.8259 162.112 52.3267 155.35 47.9387 148.531C47.6054 147.977 46.7167 147.755 45.9946 147.312C40.94 149.363 40.1623 153.631 41.1621 158.232C41.8842 161.392 43.495 164.441 44.9948 167.379C46.4945 170.261 48.383 172.977 49.9938 175.583C48.383 177.855 47.0499 176.525 45.939 175.86C32.8859 167.933 24.1653 156.07 16.8334 143.099C15.3892 140.604 14.7226 137.556 14.2782 134.673C9.50136 102.3 14.0005 71.3685 29.1644 42.2108C35.7187 29.6829 46.2167 20.9799 58.1589 13.9399C60.2697 12.665 63.047 12.5542 65.4909 11.7781C67.8794 11.0575 69.0458 9.22818 69.1569 6.84456C69.3235 4.07291 67.8794 1.3567 65.4354 0.691509C63.3247 0.137179 60.9918 -0.250866 58.9366 0.192598C56.1038 0.746928 53.1599 1.74472 50.6603 3.24141C35.9964 11.7781 23.721 22.8093 16.2779 38.3859C6.11316 59.6168 -0.163472 81.9008 0.00316392 105.626C0.0587091 116.713 0.0031369 127.744 2.33603 138.72C3.78021 145.372 6.44643 151.358 10.4457 156.735C17.2777 165.993 24.4431 174.862 33.7747 181.791C34.6078 182.456 35.3299 183.343 35.9965 184.175C36.1631 184.396 35.9964 184.895 35.8853 185.893Z" fill="url(#paint0_linear_15_55)"/>
<defs>
<linearGradient id="paint0_linear_15_55" x1="34.5849" y1="6.91414e-06" x2="34.5849" y2="198" gradientUnits="userSpaceOnUse">
<stop stop-color="#188BCD"/>
<stop offset="1" stop-color="#3B38BC"/>
</linearGradient>
</defs>
</svg>
