<svg width="309" height="52" viewBox="0 0 309 52" fill="none" xmlns="http://www.w3.org/2000/svg">
<path d="M79.04 32.37H95.3801V51.55H101.53V32.37H113.59V27.29H82.0001L79.04 32.37Z" fill="#EDEDED"/>
<path d="M146.47 43.14C148.49 41.21 149.08 38.79 149.08 36.59C149.08 35.04 148.79 33.34 147.92 31.82C146.4 29.16 143.48 27.29 139.25 27.29H117.29V51.54H123.18V45.75H137L142.6 51.54H150.32L143.84 44.87C144.88 44.42 145.74 43.82 146.47 43.13V43.14ZM142.01 39.65C141.27 40.38 140.4 40.69 139.21 40.69H123.18V32.38H139.21C140.4 32.38 141.28 32.71 142.01 33.4C142.86 34.21 143.18 35.33 143.18 36.53C143.18 37.73 142.85 38.84 142.01 39.66V39.65Z" fill="#EDEDED"/>
<path d="M168.65 27.29L153.17 51.54H159.87L162.77 47.03H181.77L184.65 51.54H191.35L175.87 27.29H168.63H168.65ZM165.99 41.96L172.11 32.37H172.46L178.54 41.96H166H165.99Z" fill="#EDEDED"/>
<path d="M214.05 27.29H195.06V51.54H214.05C219.53 51.54 223.33 49.05 225.3 45.61C226.46 43.61 226.85 41.39 226.85 39.34C226.85 37.29 226.45 35.11 225.3 33.14C223.31 29.68 219.48 27.28 214.05 27.28V27.29ZM218.95 44.66C217.65 45.9 216.1 46.47 214.01 46.47H200.95V32.37H214.01C216.08 32.37 217.65 32.96 218.95 34.18C220.44 35.61 220.95 37.55 220.95 39.5C220.95 41.45 220.43 43.25 218.95 44.65V44.66Z" fill="#EDEDED"/>
<path d="M231.13 51.55H261.33V46.47H237.02V41.96H255.56V36.88H237.02V32.37H261.33V27.29H231.13V51.55Z" fill="#EDEDED"/>
<path d="M304.94 43.14C306.96 41.21 307.55 38.79 307.55 36.59C307.55 35.04 307.26 33.34 306.39 31.82C304.87 29.16 301.95 27.29 297.72 27.29H265.89V51.54H271.78V45.75H295.47L301.07 51.54H308.79L302.31 44.87C303.35 44.42 304.21 43.82 304.94 43.13V43.14ZM300.48 39.65C299.74 40.38 298.87 40.69 297.68 40.69H271.78V32.38H297.68C298.87 32.38 299.75 32.71 300.48 33.4C301.33 34.21 301.65 35.33 301.65 36.53C301.65 37.73 301.32 38.84 300.48 39.66V39.65Z" fill="#EDEDED"/>
<path d="M86.1 4.20001H24.7601C24.6301 4.20001 24.49 4.20001 24.36 4.20001C11.23 4.20001 0.580078 14.79 0.580078 27.84C0.580078 40.89 11.23 51.48 24.36 51.48C24.38 51.48 24.4 51.48 24.42 51.48C24.44 51.48 24.46 51.48 24.48 51.48C30 51.48 35.2201 49.59 39.3801 46.42C41.5601 44.76 43.4501 42.76 44.9301 40.49C45.0301 40.33 52.66 27.83 52.66 27.83H40.47C40.47 27.83 35.84 35.86 34.67 37.11C32.13 39.84 28.51 41.58 24.47 41.59C24.47 41.59 24.4201 41.59 24.4001 41.59C24.3801 41.59 24.3501 41.59 24.3301 41.59C16.6901 41.59 10.5001 35.43 10.5001 27.83C10.5001 20.23 16.6801 14.08 24.3101 14.07H24.7701L72.79 14.13L50.5101 51.48H62.6401L86.07 12.35V4.19L86.1 4.20001Z" fill="url(#paint0_linear_1_5)"/>
<path d="M95.3002 15.81H90.6602L92.4401 12.38V4.20001H90.6702V12.38L87.8801 17.3H95.3002V15.81Z" fill="#EDEDED"/>
<path d="M103.46 13.72H109.34L110.78 17.18L112.53 17.3L107.29 4.20001H105.5L100.26 17.3L102.01 17.17L103.44 13.72H103.46ZM106.01 7.12C106.08 6.96 106.14 6.78001 106.21 6.57001C106.27 6.36001 106.34 6.14002 106.4 5.90002C106.47 6.14002 106.53 6.36001 106.6 6.57001C106.66 6.78001 106.73 6.96 106.8 7.12L108.86 12.45H103.97L106.03 7.13L106.01 7.12Z" fill="#EDEDED"/>
<path d="M122.66 17.03C123.23 16.85 123.72 16.6 124.11 16.27C124.5 15.94 124.8 15.55 125.01 15.09C125.21 14.63 125.32 14.13 125.32 13.57C125.32 12.75 125.08 12.1 124.59 11.6C124.1 11.1 123.38 10.76 122.42 10.57C122.83 10.44 123.2 10.28 123.5 10.08C123.81 9.88002 124.06 9.65001 124.26 9.39001C124.46 9.13001 124.61 8.86 124.71 8.56C124.81 8.26 124.86 7.95 124.86 7.63C124.86 7.1 124.77 6.62001 124.59 6.20001C124.41 5.78001 124.14 5.42 123.76 5.13C123.39 4.84 122.91 4.61001 122.33 4.45001C121.75 4.29001 121.06 4.21002 120.25 4.21002H116.07V17.31H120.69C121.42 17.31 122.07 17.22 122.65 17.04L122.66 17.03ZM117.85 5.59998H120.26C121.23 5.59998 121.95 5.78 122.42 6.13C122.88 6.49001 123.11 7.05002 123.11 7.83002C123.11 8.16002 123.05 8.45999 122.94 8.73999C122.82 9.01999 122.65 9.25001 122.41 9.45001C122.17 9.65001 121.86 9.79997 121.5 9.90997C121.13 10.02 120.7 10.07 120.2 10.07H117.86V5.59998H117.85ZM117.85 15.89V11.33H120.68C121.64 11.33 122.36 11.53 122.85 11.92C123.33 12.31 123.57 12.85 123.57 13.52C123.57 13.87 123.52 14.19 123.41 14.47C123.3 14.76 123.13 15.01 122.89 15.22C122.66 15.43 122.36 15.59 121.99 15.71C121.62 15.83 121.19 15.88 120.68 15.88H117.85V15.89Z" fill="#EDEDED"/>
<path d="M130.7 15.57C131.27 16.16 131.95 16.62 132.74 16.95C133.53 17.28 134.41 17.44 135.37 17.44C136.33 17.44 137.21 17.28 138.01 16.95C138.81 16.62 139.49 16.17 140.05 15.57C140.62 14.98 141.06 14.27 141.37 13.45C141.68 12.63 141.84 11.73 141.84 10.75C141.84 9.77 141.68 8.86999 141.37 8.04999C141.06 7.22999 140.62 6.51999 140.05 5.92999C139.48 5.33999 138.8 4.86999 138.01 4.54999C137.22 4.21999 136.34 4.06 135.37 4.06C134.4 4.06 133.53 4.21999 132.74 4.54999C131.95 4.87999 131.27 5.33999 130.7 5.92999C130.13 6.51999 129.69 7.22999 129.38 8.04999C129.07 8.86999 128.91 9.77 128.91 10.75C128.91 11.73 129.07 12.63 129.38 13.45C129.69 14.27 130.13 14.97 130.7 15.57ZM131.05 8.59003C131.27 7.95003 131.58 7.40997 131.99 6.96997C132.39 6.52997 132.88 6.19001 133.46 5.95001C134.03 5.71001 134.67 5.59003 135.37 5.59003C136.07 5.59003 136.72 5.71001 137.29 5.95001C137.86 6.19001 138.35 6.52997 138.75 6.96997C139.15 7.40997 139.46 7.95003 139.68 8.59003C139.9 9.23003 140.01 9.95001 140.01 10.76C140.01 11.57 139.9 12.28 139.68 12.92C139.46 13.56 139.15 14.1 138.75 14.54C138.35 14.98 137.86 15.32 137.29 15.55C136.72 15.78 136.08 15.9 135.37 15.9C134.66 15.9 134.03 15.78 133.46 15.55C132.89 15.32 132.4 14.98 131.99 14.54C131.58 14.1 131.27 13.56 131.05 12.92C130.83 12.28 130.72 11.56 130.72 10.76C130.72 9.96001 130.83 9.23003 131.05 8.59003Z" fill="#EDEDED"/>
<path d="M147.95 11.83H149.29C149.54 11.83 149.72 11.86 149.84 11.93C149.96 11.99 150.07 12.1 150.17 12.25L153.87 17.21L155.85 17.3L151.45 11.54C151.45 11.54 152.41 11.26 152.81 11.03C153.21 10.8 153.55 10.53 153.82 10.21C154.1 9.89002 154.31 9.53 154.46 9.13C154.61 8.73 154.68 8.30002 154.68 7.83002C154.68 7.28002 154.59 6.77002 154.4 6.33002C154.21 5.88002 153.92 5.49999 153.53 5.17999C153.14 4.85999 152.64 4.62001 152.04 4.45001C151.44 4.28001 150.72 4.20001 149.89 4.20001H146.19V17.3H147.95V11.84V11.83ZM147.95 5.59998H149.89C150.91 5.59998 151.68 5.8 152.19 6.19C152.7 6.59 152.96 7.17001 152.96 7.95001C152.96 8.33001 152.89 8.68 152.76 9C152.63 9.32 152.43 9.59001 152.16 9.82001C151.9 10.05 151.57 10.23 151.17 10.35C150.78 10.47 150.32 10.54 149.81 10.54H147.95V5.59998Z" fill="#EDEDED"/>
<path d="M161.04 13.72H166.92L168.36 17.18L170.11 17.3L164.87 4.20001H163.08L157.84 17.3L159.59 17.17L161.02 13.72H161.04ZM163.59 7.12C163.66 6.96 163.72 6.78001 163.79 6.57001C163.85 6.36001 163.92 6.14002 163.98 5.90002C164.05 6.14002 164.11 6.36001 164.18 6.57001C164.24 6.78001 164.31 6.96 164.38 7.12L166.44 12.45H161.55L163.61 7.13L163.59 7.12Z" fill="#EDEDED"/>
<path d="M175.23 17.3H176.99V5.69H181.23V4.20001H170.98V5.69H175.23V17.3Z" fill="#EDEDED"/>
<path d="M196.51 10.76C196.51 9.78001 196.35 8.88 196.04 8.06C195.73 7.24 195.29 6.53 194.72 5.94C194.15 5.35 193.47 4.88 192.68 4.56C191.88 4.23 191.01 4.07001 190.04 4.07001C189.07 4.07001 188.2 4.23 187.41 4.56C186.62 4.89 185.94 5.35 185.37 5.94C184.8 6.53 184.36 7.24 184.05 8.06C183.74 8.88 183.58 9.78001 183.58 10.76C183.58 11.74 183.74 12.64 184.05 13.46C184.36 14.28 184.8 14.98 185.37 15.58C185.94 16.17 186.62 16.63 187.41 16.96C188.2 17.29 189.08 17.45 190.04 17.45C191 17.45 191.88 17.29 192.68 16.96C193.48 16.63 194.16 16.18 194.72 15.58C195.29 14.99 195.73 14.28 196.04 13.46C196.35 12.64 196.51 11.74 196.51 10.76ZM194.36 12.92C194.14 13.56 193.83 14.1 193.43 14.54C193.03 14.98 192.54 15.32 191.97 15.55C191.4 15.78 190.76 15.9 190.05 15.9C189.34 15.9 188.71 15.78 188.14 15.55C187.57 15.32 187.08 14.98 186.67 14.54C186.26 14.1 185.95 13.56 185.73 12.92C185.51 12.28 185.4 11.56 185.4 10.76C185.4 9.96001 185.51 9.23003 185.73 8.59003C185.95 7.95003 186.26 7.40997 186.67 6.96997C187.08 6.52997 187.56 6.19001 188.14 5.95001C188.71 5.71001 189.35 5.59003 190.05 5.59003C190.75 5.59003 191.4 5.71001 191.97 5.95001C192.54 6.19001 193.03 6.52997 193.43 6.96997C193.83 7.40997 194.14 7.95003 194.36 8.59003C194.58 9.23003 194.69 9.95001 194.69 10.76C194.69 11.57 194.58 12.28 194.36 12.92Z" fill="#EDEDED"/>
<path d="M193.52 0.369995L191.22 0.419983L188.8 3.16998L190.28 3.14001L193.52 0.369995Z" fill="#EDEDED"/>
<path d="M202.63 11.83H203.97C204.22 11.83 204.4 11.86 204.52 11.93C204.64 11.99 204.75 12.1 204.85 12.25L208.57 17.22L210.54 17.3L206.14 11.54C206.14 11.54 207.1 11.26 207.5 11.03C207.9 10.8 208.24 10.53 208.51 10.21C208.79 9.89002 209 9.53 209.15 9.13C209.3 8.73 209.37 8.30002 209.37 7.83002C209.37 7.28002 209.28 6.77002 209.09 6.33002C208.9 5.88002 208.61 5.49999 208.22 5.17999C207.83 4.85999 207.33 4.62001 206.73 4.45001C206.13 4.28001 205.41 4.20001 204.58 4.20001H200.88V17.3H202.64V11.84L202.63 11.83ZM202.63 5.59998H204.57C205.59 5.59998 206.36 5.8 206.87 6.19C207.38 6.59 207.64 7.17001 207.64 7.95001C207.64 8.33001 207.57 8.68 207.44 9C207.31 9.32 207.11 9.59001 206.84 9.82001C206.58 10.05 206.25 10.23 205.85 10.35C205.46 10.47 205 10.54 204.49 10.54H202.63V5.59998Z" fill="#EDEDED"/>
<path d="M215.92 4.20001H214.15V17.3H215.92V4.20001Z" fill="#EDEDED"/>
<path d="M232.72 13.46C233.03 12.64 233.19 11.74 233.19 10.76C233.19 9.78001 233.03 8.88 232.72 8.06C232.41 7.24 231.97 6.53 231.4 5.94C230.83 5.35 230.15 4.88 229.36 4.56C228.56 4.23 227.69 4.07001 226.72 4.07001C225.75 4.07001 224.88 4.23 224.09 4.56C223.3 4.89 222.62 5.35 222.05 5.94C221.48 6.53 221.04 7.24 220.73 8.06C220.42 8.88 220.26 9.78001 220.26 10.76C220.26 11.74 220.42 12.64 220.73 13.46C221.04 14.28 221.48 14.98 222.05 15.58C222.62 16.17 223.3 16.63 224.09 16.96C224.88 17.29 225.76 17.45 226.72 17.45C227.68 17.45 228.56 17.29 229.36 16.96C230.15 16.63 230.84 16.18 231.4 15.58C231.97 14.99 232.41 14.28 232.72 13.46ZM231.04 12.92C230.82 13.56 230.51 14.1 230.11 14.54C229.71 14.98 229.22 15.32 228.65 15.55C228.08 15.78 227.44 15.9 226.73 15.9C226.02 15.9 225.39 15.78 224.82 15.55C224.25 15.32 223.76 14.98 223.35 14.54C222.94 14.1 222.63 13.56 222.41 12.92C222.19 12.28 222.08 11.56 222.08 10.76C222.08 9.96001 222.19 9.23003 222.41 8.59003C222.63 7.95003 222.94 7.40997 223.35 6.96997C223.76 6.52997 224.24 6.19001 224.82 5.95001C225.39 5.71001 226.03 5.59003 226.73 5.59003C227.43 5.59003 228.08 5.71001 228.65 5.95001C229.22 6.19001 229.71 6.52997 230.11 6.96997C230.51 7.40997 230.82 7.95003 231.04 8.59003C231.26 9.23003 231.37 9.95001 231.37 10.76C231.37 11.57 231.26 12.28 231.04 12.92Z" fill="#EDEDED"/>
<path d="M241 10.75L237.99 4.83002H308.79V4.06H234.37L237.43 10.76L234.38 17.44H308.79V16.67H238L241 10.75Z" fill="url(#paint1_linear_1_5)"/>
<defs>
<linearGradient id="paint0_linear_1_5" x1="2.74008" y1="37.07" x2="86.01" y2="17.57" gradientUnits="userSpaceOnUse">
<stop stop-color="#058BC4"/>
<stop offset="1" stop-color="#1D1C87"/>
</linearGradient>
<linearGradient id="paint1_linear_1_5" x1="234.37" y1="10.75" x2="308.79" y2="10.75" gradientUnits="userSpaceOnUse">
<stop stop-color="#1D1C87"/>
<stop offset="1" stop-color="#058BC4"/>
</linearGradient>
</defs>
</svg>
